<mxfile host="app.diagrams.net" modified="2022-06-21T01:15:19.026Z" agent="5.0 (Windows NT 10.0; Win64; x64) AppleWebKit/537.36 (KHTML, like Gecko) Chrome/102.0.5005.115 Safari/537.36" etag="4hNwZwI7xJk-qoLVyNZb" version="20.0.1" type="github">
  <diagram id="OWx4hyj13moDCeKYkGol" name="Page-1">
    <mxGraphModel dx="942" dy="525" grid="0" gridSize="10" guides="1" tooltips="1" connect="1" arrows="1" fold="1" page="1" pageScale="1" pageWidth="827" pageHeight="1169" background="none" math="0" shadow="0">
      <root>
        <mxCell id="0" />
        <mxCell id="1" parent="0" />
        <mxCell id="BlWtB7wRCgwoyf2Vnwdp-19" value="" style="endArrow=none;html=1;rounded=0;fontSize=12;dashed=1;strokeWidth=4;shadow=0;" edge="1" parent="1">
          <mxGeometry width="50" height="50" relative="1" as="geometry">
            <mxPoint x="415" y="182" as="sourcePoint" />
            <mxPoint x="415" y="972.9999999999998" as="targetPoint" />
          </mxGeometry>
        </mxCell>
        <mxCell id="BlWtB7wRCgwoyf2Vnwdp-20" value="0.0&lt;br&gt;&lt;span style=&quot;text-align: left;&quot;&gt;&lt;font style=&quot;font-size: 15px;&quot;&gt;Мобильное приложение для функциональной диагностики&lt;/font&gt;&lt;/span&gt;" style="ellipse;shape=doubleEllipse;whiteSpace=wrap;html=1;aspect=fixed;fontStyle=1;fontSize=14;" vertex="1" parent="1">
          <mxGeometry x="671" y="410" width="160" height="160" as="geometry" />
        </mxCell>
        <mxCell id="BlWtB7wRCgwoyf2Vnwdp-21" value="&lt;div style=&quot;line-height: 0.9;&quot;&gt;&lt;br&gt;&lt;/div&gt;&lt;div style=&quot;display:none&quot; id=&quot;SDCloudData&quot;&gt;&lt;/div&gt;" style="text;whiteSpace=wrap;html=1;" vertex="1" parent="1">
          <mxGeometry x="402" y="175" width="3" height="15" as="geometry" />
        </mxCell>
        <mxCell id="BlWtB7wRCgwoyf2Vnwdp-22" value="1.0&lt;br style=&quot;font-size: 14px;&quot;&gt;Пользователь&lt;div style=&quot;display: none; font-size: 14px;&quot; id=&quot;SDCloudData&quot;&gt;&lt;/div&gt;" style="html=1;dashed=0;whitespace=wrap;fontStyle=1;fontSize=14;" vertex="1" parent="1">
          <mxGeometry x="140" y="434" width="130" height="50" as="geometry" />
        </mxCell>
        <mxCell id="BlWtB7wRCgwoyf2Vnwdp-23" value="ИНТРАСЕТЬ&amp;nbsp; &amp;nbsp; &amp;nbsp; &amp;nbsp; &amp;nbsp; &amp;nbsp; &amp;nbsp; &amp;nbsp; &amp;nbsp; &amp;nbsp; &amp;nbsp; &amp;nbsp; &amp;nbsp; &amp;nbsp; &amp;nbsp; &amp;nbsp; &amp;nbsp; &amp;nbsp; ЦЕНТР ДАННЫХ&lt;div style=&quot;display: none; font-size: 14px;&quot; id=&quot;SDCloudData&quot;&gt;&lt;/div&gt;" style="text;whiteSpace=wrap;html=1;strokeWidth=2;fontStyle=1;fontSize=14;" vertex="1" parent="1">
          <mxGeometry x="260" y="160" width="381" height="30" as="geometry" />
        </mxCell>
        <mxCell id="BlWtB7wRCgwoyf2Vnwdp-24" value="Мобильное приложение для функциональной диагностики" style="text;whiteSpace=wrap;html=1;fontSize=19;fontStyle=1" vertex="1" parent="1">
          <mxGeometry x="163" y="101" width="600" height="30" as="geometry" />
        </mxCell>
        <mxCell id="BlWtB7wRCgwoyf2Vnwdp-25" value="2.0&lt;br style=&quot;font-size: 14px;&quot;&gt;&amp;nbsp;разработчик&lt;div style=&quot;display: none; font-size: 14px;&quot; id=&quot;SDCloudData&quot;&gt;&lt;/div&gt;" style="html=1;dashed=0;whitespace=wrap;fontStyle=1;fontSize=14;" vertex="1" parent="1">
          <mxGeometry x="156" y="249" width="130" height="50" as="geometry" />
        </mxCell>
        <mxCell id="BlWtB7wRCgwoyf2Vnwdp-26" value="3.0&lt;br style=&quot;font-size: 14px;&quot;&gt;Администратор&lt;br&gt;&lt;div style=&quot;display: none; font-size: 14px;&quot; id=&quot;SDCloudData&quot;&gt;&lt;/div&gt;" style="html=1;dashed=0;whitespace=wrap;fontStyle=1;fontSize=14;" vertex="1" parent="1">
          <mxGeometry x="174" y="685" width="130" height="50" as="geometry" />
        </mxCell>
        <mxCell id="BlWtB7wRCgwoyf2Vnwdp-27" value="" style="curved=1;endArrow=classic;html=1;rounded=0;fontSize=19;exitX=0.626;exitY=-0.083;exitDx=0;exitDy=0;exitPerimeter=0;" edge="1" parent="1" source="BlWtB7wRCgwoyf2Vnwdp-22" target="BlWtB7wRCgwoyf2Vnwdp-20">
          <mxGeometry width="50" height="50" relative="1" as="geometry">
            <mxPoint x="276" y="452" as="sourcePoint" />
            <mxPoint x="724.4800000000002" y="499.4799999999998" as="targetPoint" />
            <Array as="points">
              <mxPoint x="367" y="347" />
              <mxPoint x="639" y="406" />
            </Array>
          </mxGeometry>
        </mxCell>
        <mxCell id="BlWtB7wRCgwoyf2Vnwdp-28" value="&lt;font style=&quot;font-size: 14px;&quot;&gt;Запрос определения диагноза&lt;/font&gt;" style="edgeLabel;html=1;align=center;verticalAlign=middle;resizable=0;points=[];fontSize=19;fontStyle=1" vertex="1" connectable="0" parent="BlWtB7wRCgwoyf2Vnwdp-27">
          <mxGeometry x="0.2408" y="-22" relative="1" as="geometry">
            <mxPoint x="20" y="-3" as="offset" />
          </mxGeometry>
        </mxCell>
        <mxCell id="BlWtB7wRCgwoyf2Vnwdp-29" value="" style="curved=1;endArrow=classic;html=1;rounded=0;fontSize=19;exitX=0;exitY=0;exitDx=0;exitDy=0;entryX=0.5;entryY=1;entryDx=0;entryDy=0;" edge="1" parent="1" source="BlWtB7wRCgwoyf2Vnwdp-20" target="BlWtB7wRCgwoyf2Vnwdp-22">
          <mxGeometry width="50" height="50" relative="1" as="geometry">
            <mxPoint x="250" y="270" as="sourcePoint" />
            <mxPoint x="300" y="220" as="targetPoint" />
            <Array as="points">
              <mxPoint x="580" y="565" />
              <mxPoint x="326" y="546" />
            </Array>
          </mxGeometry>
        </mxCell>
        <mxCell id="BlWtB7wRCgwoyf2Vnwdp-30" value="Результат определяемого диагноза" style="edgeLabel;html=1;align=center;verticalAlign=middle;resizable=0;points=[];fontSize=14;fontStyle=1" vertex="1" connectable="0" parent="BlWtB7wRCgwoyf2Vnwdp-29">
          <mxGeometry x="0.4035" y="-17" relative="1" as="geometry">
            <mxPoint x="1" y="-13" as="offset" />
          </mxGeometry>
        </mxCell>
        <mxCell id="BlWtB7wRCgwoyf2Vnwdp-31" value="" style="curved=1;endArrow=classic;html=1;rounded=0;fontSize=14;exitX=1;exitY=0.25;exitDx=0;exitDy=0;entryX=0.5;entryY=0;entryDx=0;entryDy=0;" edge="1" parent="1" source="BlWtB7wRCgwoyf2Vnwdp-25" target="BlWtB7wRCgwoyf2Vnwdp-20">
          <mxGeometry width="50" height="50" relative="1" as="geometry">
            <mxPoint x="410" y="300" as="sourcePoint" />
            <mxPoint x="460" y="250" as="targetPoint" />
            <Array as="points">
              <mxPoint x="614" y="227" />
            </Array>
          </mxGeometry>
        </mxCell>
        <mxCell id="BlWtB7wRCgwoyf2Vnwdp-32" value="Обновленые файле" style="edgeLabel;html=1;align=center;verticalAlign=middle;resizable=0;points=[];fontSize=14;fontStyle=1" vertex="1" connectable="0" parent="BlWtB7wRCgwoyf2Vnwdp-31">
          <mxGeometry x="0.3003" y="-18" relative="1" as="geometry">
            <mxPoint x="-80" y="11" as="offset" />
          </mxGeometry>
        </mxCell>
        <mxCell id="BlWtB7wRCgwoyf2Vnwdp-33" value="" style="curved=1;endArrow=classic;html=1;rounded=0;fontSize=14;exitX=0.414;exitY=0.037;exitDx=0;exitDy=0;entryX=0;entryY=1;entryDx=0;entryDy=0;exitPerimeter=0;" edge="1" parent="1" source="BlWtB7wRCgwoyf2Vnwdp-26" target="BlWtB7wRCgwoyf2Vnwdp-20">
          <mxGeometry width="50" height="50" relative="1" as="geometry">
            <mxPoint x="223" y="529" as="sourcePoint" />
            <mxPoint x="657.4599999999998" y="588.8399999999999" as="targetPoint" />
            <Array as="points">
              <mxPoint x="433" y="573" />
            </Array>
          </mxGeometry>
        </mxCell>
        <mxCell id="BlWtB7wRCgwoyf2Vnwdp-34" value="Запрос на административное&lt;br&gt;&amp;nbsp;воздействие" style="edgeLabel;html=1;align=center;verticalAlign=middle;resizable=0;points=[];fontSize=14;fontStyle=1" vertex="1" connectable="0" parent="BlWtB7wRCgwoyf2Vnwdp-33">
          <mxGeometry x="-0.3113" y="-5" relative="1" as="geometry">
            <mxPoint x="17" y="35" as="offset" />
          </mxGeometry>
        </mxCell>
        <mxCell id="BlWtB7wRCgwoyf2Vnwdp-35" value="" style="curved=1;endArrow=classic;html=1;rounded=0;fontSize=14;exitX=0.5;exitY=1;exitDx=0;exitDy=0;entryX=0.438;entryY=1.068;entryDx=0;entryDy=0;entryPerimeter=0;" edge="1" parent="1" source="BlWtB7wRCgwoyf2Vnwdp-20" target="BlWtB7wRCgwoyf2Vnwdp-26">
          <mxGeometry width="50" height="50" relative="1" as="geometry">
            <mxPoint x="670.5025253169417" y="619.497474683058" as="sourcePoint" />
            <mxPoint x="185" y="582" as="targetPoint" />
            <Array as="points">
              <mxPoint x="609" y="688" />
              <mxPoint x="471" y="804" />
            </Array>
          </mxGeometry>
        </mxCell>
        <mxCell id="BlWtB7wRCgwoyf2Vnwdp-36" value="Отклик на административное&lt;br&gt;&amp;nbsp;воздействие" style="edgeLabel;html=1;align=center;verticalAlign=middle;resizable=0;points=[];fontSize=14;fontStyle=1" vertex="1" connectable="0" parent="BlWtB7wRCgwoyf2Vnwdp-35">
          <mxGeometry x="0.2723" y="-8" relative="1" as="geometry">
            <mxPoint x="183" y="-43" as="offset" />
          </mxGeometry>
        </mxCell>
      </root>
    </mxGraphModel>
  </diagram>
</mxfile>
